<?xml version="1.0" standalone="no"?>
<!DOCTYPE svg PUBLIC "-//W3C//DTD SVG 20010904//EN"
 "http://www.w3.org/TR/2001/REC-SVG-20010904/DTD/svg10.dtd">
<svg version="1.0" xmlns="http://www.w3.org/2000/svg"
 width="545.000000pt" height="545.000000pt" viewBox="0 0 545.000000 545.000000"
 preserveAspectRatio="xMidYMid meet">
<metadata>
Created by potrace 1.11, written by Peter Selinger 2001-2013
</metadata>
<g transform="translate(0.000000,545.000000) scale(0.100000,-0.100000)"
fill="#000000" stroke="none">
<path d="M2479 5115 c-2 -2 -37 -6 -78 -10 -41 -4 -82 -8 -90 -10 -9 -1 -36
-6 -61 -10 -95 -15 -290 -65 -405 -105 -103 -36 -379 -163 -439 -202 -11 -7
-63 -41 -115 -75 -141 -91 -251 -182 -391 -322 -405 -406 -652 -921 -717
-1496 -10 -92 -10 -430 0 -525 32 -300 105 -553 238 -825 99 -203 156 -295
288 -465 69 -89 281 -308 365 -375 389 -316 835 -504 1331 -562 88 -10 439
-10 525 0 484 56 904 228 1290 525 106 82 324 300 410 410 225 289 388 623
470 967 16 66 31 138 35 160 3 23 7 51 10 65 29 152 27 580 -5 745 -5 28 -11
64 -14 80 -45 277 -186 630 -358 895 -113 175 -328 419 -483 549 -220 185
-509 351 -775 446 -53 19 -168 55 -190 60 -3 1 -48 11 -100 23 -100 23 -129
28 -195 37 -22 3 -58 8 -80 11 -46 7 -461 15 -466 9z m417 -79 c852 -83 1587
-595 1961 -1366 68 -140 147 -362 168 -468 1 -9 8 -35 13 -57 10 -37 14 -62
28 -155 3 -19 7 -40 9 -47 17 -50 24 -380 12 -535 -8 -95 -38 -278 -62 -373
-9 -33 -17 -68 -20 -77 -2 -10 -20 -66 -40 -124 -52 -152 -102 -262 -199 -439
-105 -190 -325 -452 -521 -619 -33 -28 -62 -53 -65 -56 -8 -8 -71 -54 -140
-102 -106 -73 -256 -158 -371 -209 -105 -47 -339 -132 -339 -123 0 3 -8 1 -17
-5 -39 -20 -294 -65 -443 -78 -134 -12 -494 -4 -519 12 -3 1 -28 6 -56 9 -403
54 -837 250 -1175 532 -297 247 -516 541 -683 914 -67 151 -144 421 -163 575
-3 22 -7 45 -9 52 -23 71 -23 521 0 643 2 14 6 41 9 60 40 300 179 661 362
941 263 404 638 718 1096 918 130 57 431 142 552 157 24 2 55 7 67 9 13 3 67
8 119 11 52 4 96 7 97 9 6 4 264 -3 329 -9z"/>
<path d="M1241 3796 c-24 -9 -37 -22 -47 -46 -7 -19 -40 -109 -74 -200 -76
-204 -119 -318 -131 -348 -5 -12 -59 -156 -119 -320 -61 -163 -117 -313 -125
-332 -8 -19 -41 -105 -74 -190 -32 -85 -73 -185 -90 -222 -16 -38 -28 -68 -25
-68 2 0 -1 -10 -8 -22 -6 -13 -14 -44 -16 -70 l-3 -47 143 -3 c79 -2 165 -2
191 0 l48 3 -3 41 c-3 39 -5 42 -37 46 -61 6 -105 26 -120 54 -20 36 -9 91 71
334 l63 189 287 2 286 2 42 -122 c52 -150 113 -342 135 -422 10 -33 22 -74 28
-92 l11 -32 90 -3 c50 -2 134 -1 186 2 l95 5 1 42 c1 39 -1 42 -30 47 -77 15
-127 71 -178 204 -36 95 -125 351 -346 997 -71 209 -145 425 -164 479 -19 55
-38 101 -43 102 -6 1 -25 -3 -44 -10z m92 -811 l86 -260 -241 -3 c-133 -1
-243 -1 -245 1 -3 4 33 111 188 557 65 186 56 180 94 65 18 -55 71 -217 118
-360z"/>
<path d="M2985 3770 l-100 -5 -1 -42 c0 -41 1 -42 42 -52 50 -13 93 -59 95
-102 1 -16 3 -33 4 -39 1 -5 3 -368 4 -805 l1 -795 202 2 202 3 -1 33 c-1 17
-2 36 -2 41 -1 4 -19 11 -41 14 -48 6 -83 27 -107 64 -16 24 -18 64 -21 390
l-4 363 39 0 c233 2 877 0 879 -3 2 -2 4 -206 5 -455 l1 -451 86 -3 c48 -2
140 -2 205 0 l117 3 0 43 0 43 -46 7 c-60 8 -100 32 -116 70 -10 24 -13 186
-13 756 0 671 1 728 18 759 11 22 17 57 17 97 l0 63 -132 3 c-73 2 -180 2
-239 0 l-105 -3 -1 -39 c-1 -43 -2 -43 81 -54 46 -6 79 -27 103 -63 16 -24 18
-61 21 -340 l4 -313 -462 0 -462 0 5 318 c3 174 8 333 11 352 3 19 8 58 11 87
l6 52 -103 3 c-57 2 -148 1 -203 -2z"/>
<path d="M2145 3733 c2 -21 3 -41 4 -44 1 -3 23 -11 50 -18 60 -15 91 -46 102
-103 10 -50 5 -1491 -6 -1558 -35 -229 -97 -348 -225 -431 l-49 -32 15 -35 c8
-20 16 -38 19 -40 8 -8 113 48 171 92 102 76 192 184 234 279 19 43 54 164 65
227 8 43 14 470 18 1168 l2 532 -202 0 -201 0 3 -37z"/>
<path d="M1596 1242 c-3 -3 -6 -14 -6 -24 0 -24 43 -21 48 3 3 16 -31 33 -42
21z"/>
</g>
</svg>
